<?xml version="1.0" encoding="UTF-8" standalone="no"?>
<!-- Created with Inkscape (http://www.inkscape.org/) -->

<svg
   width="1000"
   height="1000"
   viewBox="0 0 264.58333 264.58334"
   version="1.1"
   id="svg5"
   inkscape:version="1.1.1 (3bf5ae0d25, 2021-09-20)"
   sodipodi:docname="drawing.svg"
   xmlns:inkscape="http://www.inkscape.org/namespaces/inkscape"
   xmlns:sodipodi="http://sodipodi.sourceforge.net/DTD/sodipodi-0.dtd"
   xmlns="http://www.w3.org/2000/svg"
   xmlns:svg="http://www.w3.org/2000/svg">
  <sodipodi:namedview
     id="namedview7"
     pagecolor="#ffffff"
     bordercolor="#666666"
     borderopacity="1.0"
     inkscape:pageshadow="2"
     inkscape:pageopacity="0"
     inkscape:pagecheckerboard="true"
     inkscape:document-units="px"
     showgrid="false"
     units="px"
     inkscape:zoom="0.70710678"
     inkscape:cx="815.29412"
     inkscape:cy="574.87781"
     inkscape:window-width="1920"
     inkscape:window-height="1017"
     inkscape:window-x="-8"
     inkscape:window-y="-8"
     inkscape:window-maximized="1"
     inkscape:current-layer="g27484" />
  <defs
     id="defs2">
    <marker
       style="overflow:visible"
       id="TriangleOutM"
       refX="0.0"
       refY="0.0"
       orient="auto"
       inkscape:stockid="TriangleOutM"
       inkscape:isstock="true">
      <path
         transform="scale(0.4)"
         style="fill-rule:evenodd;fill:context-stroke;stroke:context-stroke;stroke-width:1.0pt"
         d="M 5.77,0.0 L -2.88,5.0 L -2.88,-5.0 L 5.77,0.0 z "
         id="path14619" />
    </marker>
    <marker
       style="overflow:visible;"
       id="Arrow2Send"
       refX="0.0"
       refY="0.0"
       orient="auto"
       inkscape:stockid="Arrow2Send"
       inkscape:isstock="true">
      <path
         transform="scale(0.3) rotate(180) translate(-2.3,0)"
         d="M 8.7185878,4.0337352 L -2.2072895,0.016013256 L 8.7185884,-4.0017078 C 6.9730900,-1.6296469 6.9831476,1.6157441 8.7185878,4.0337352 z "
         style="stroke:context-stroke;fill-rule:evenodd;fill:context-stroke;stroke-width:0.62500000;stroke-linejoin:round;"
         id="path14507" />
    </marker>
    <marker
       style="overflow:visible;"
       id="Arrow2Mend"
       refX="0.0"
       refY="0.0"
       orient="auto"
       inkscape:stockid="Arrow2Mend"
       inkscape:isstock="true">
      <path
         transform="scale(0.6) rotate(180) translate(0,0)"
         d="M 8.7185878,4.0337352 L -2.2072895,0.016013256 L 8.7185884,-4.0017078 C 6.9730900,-1.6296469 6.9831476,1.6157441 8.7185878,4.0337352 z "
         style="stroke:context-stroke;fill-rule:evenodd;fill:context-stroke;stroke-width:0.62500000;stroke-linejoin:round;"
         id="path14501" />
    </marker>
    <marker
       style="overflow:visible;"
       id="Arrow1Send"
       refX="0.0"
       refY="0.0"
       orient="auto"
       inkscape:stockid="Arrow1Send"
       inkscape:isstock="true">
      <path
         transform="scale(0.2) rotate(180) translate(6,0)"
         style="fill-rule:evenodd;fill:context-stroke;stroke:context-stroke;stroke-width:1.0pt;"
         d="M 0.0,0.0 L 5.0,-5.0 L -12.5,0.0 L 5.0,5.0 L 0.0,0.0 z "
         id="path14489" />
    </marker>
    <marker
       style="overflow:visible;"
       id="Arrow1Mend"
       refX="0.0"
       refY="0.0"
       orient="auto"
       inkscape:stockid="Arrow1Mend"
       inkscape:isstock="true">
      <path
         transform="scale(0.4) rotate(180) translate(10,0)"
         style="fill-rule:evenodd;fill:context-stroke;stroke:context-stroke;stroke-width:1.0pt;"
         d="M 0.0,0.0 L 5.0,-5.0 L -12.5,0.0 L 5.0,5.0 L 0.0,0.0 z "
         id="path14483" />
    </marker>
    <marker
       style="overflow:visible;"
       id="Arrow2Lend"
       refX="0.0"
       refY="0.0"
       orient="auto"
       inkscape:stockid="Arrow2Lend"
       inkscape:isstock="true">
      <path
         transform="scale(1.1) rotate(180) translate(1,0)"
         d="M 8.7185878,4.0337352 L -2.2072895,0.016013256 L 8.7185884,-4.0017078 C 6.9730900,-1.6296469 6.9831476,1.6157441 8.7185878,4.0337352 z "
         style="stroke:context-stroke;fill-rule:evenodd;fill:context-stroke;stroke-width:0.62500000;stroke-linejoin:round;"
         id="path14495" />
    </marker>
    <clipPath
       clipPathUnits="userSpaceOnUse"
       id="clipPath839">
      <path
         d="M 0,2400 H 2400 V 0 H 0 Z"
         id="path837" />
    </clipPath>
    <clipPath
       clipPathUnits="userSpaceOnUse"
       id="clipPath863">
      <path
         d="M 885.651,1129.24 H 1461.11 V 852 H 885.651 Z"
         id="path861" />
    </clipPath>
    <clipPath
       clipPathUnits="userSpaceOnUse"
       id="clipPath1006">
      <rect
         style="fill:#ffffff;stroke:#000000;stroke-width:8.1;stroke-linecap:round;paint-order:stroke fill markers"
         id="rect1008"
         width="331.98663"
         height="260.92242"
         x="1134.4446"
         y="-1339.3492" />
    </clipPath>
  </defs>
  <g
     inkscape:label="Layer 1"
     inkscape:groupmode="layer"
     id="layer1">
    <g
       id="g27484"
       transform="matrix(0.74095228,0,0,-0.74095228,-593.30989,974.13188)">
      <path
         id="path6783"
         style="font-size:88.3741px;line-height:1.25;font-family:'FN Shorif Borsha Unicode';-inkscape-font-specification:'FN Shorif Borsha Unicode';fill:#4d4d4d;stroke-width:2.10034"
         d="M 134.09766 372.90039 C 119.33527 372.90039 105.70189 376.80755 93.197266 384.62305 C 81.387359 392.95943 73.224541 403.90251 68.708984 417.44922 C 67.666918 420.40164 67.144531 423.0919 67.144531 425.52344 C 67.144531 428.47586 68.361506 432.4713 70.792969 437.50781 C 73.224412 442.3707 75.654475 447.14668 78.085938 451.83594 L 62.455078 451.83594 C 56.376441 451.83594 53.337891 454.87447 53.337891 460.95312 C 53.337891 467.03178 56.376441 470.07227 62.455078 470.07227 L 83.296875 470.07227 L 83.296875 471.375 C 83.470503 473.11184 83.556641 520.17703 83.556641 612.57227 C 83.556641 618.47711 86.683245 621.42969 92.935547 621.42969 C 98.840519 621.42969 101.79297 618.47711 101.79297 612.57227 C 101.79297 531.81328 101.9671 489.52406 102.31445 485.70312 C 102.6618 480.31917 102.83594 475.10878 102.83594 470.07227 L 120.0293 470.07227 C 121.43309 470.07227 122.66431 469.89432 123.73438 469.55078 L 219.80469 469.55078 C 217.19956 471.11399 214.68146 472.76335 212.25 474.5 C 158.75803 506.10886 132.01172 525.12664 132.01172 531.55273 C 132.01172 534.67878 132.96848 537.02273 134.87891 538.58594 C 136.78934 539.97533 138.52481 540.67188 140.08789 540.67188 C 141.65095 540.67188 143.3023 540.23765 145.03906 539.36914 C 145.73376 539.02188 146.60053 538.84766 147.64258 538.84766 C 150.9424 538.84766 155.5462 540.06279 161.45117 542.49414 L 164.31641 543.79688 C 173.34752 546.57567 182.11881 550.22284 190.62891 554.73828 C 208.34377 562.20633 222.06325 573.92996 231.78906 589.9082 L 231.78906 600.58789 C 231.78906 606.3191 234.74151 609.18555 240.64648 609.18555 C 246.55144 609.18555 249.50391 606.3191 249.50391 600.58789 L 249.50391 469.55078 L 263.4043 469.55078 C 264.50606 469.89452 265.77324 470.07227 267.21875 470.07227 L 288.06055 470.07227 L 288.06055 471.375 C 288.23417 473.11184 288.32031 520.17703 288.32031 612.57227 C 288.32031 618.47711 291.4469 621.42969 297.69922 621.42969 C 303.60417 621.42969 306.55664 618.47711 306.55664 612.57227 C 306.55664 531.81328 306.73078 489.52406 307.07812 485.70312 C 307.42547 480.31917 307.59766 475.10878 307.59766 470.07227 L 324.79297 470.07227 C 326.19676 470.07227 327.42798 469.89432 328.49805 469.55078 L 425.08984 469.55078 L 425.08984 471.11328 C 390.00745 491.95423 361.52371 508.7142 339.64062 521.39258 C 336.86183 523.12923 335.47266 525.30109 335.47266 527.90625 C 335.47266 531.37974 336.51551 533.89773 338.59961 535.46094 C 340.68372 536.85033 342.50725 537.54492 344.07031 537.54492 C 345.45973 537.54492 346.93497 537.19665 348.49805 536.50195 C 349.36641 536.84921 350.5834 537.19748 352.14648 537.54492 L 358.39844 538.84766 C 387.22852 545.09994 409.45908 560.47073 425.08984 584.95898 L 425.08984 596.94141 C 425.08984 602.49918 427.95426 605.27734 433.68555 605.27734 C 439.5905 605.27734 442.54297 602.49918 442.54297 596.94141 L 442.54297 491.95508 C 459.56315 491.95508 470.76645 498.12023 476.15039 510.45117 C 477.3661 513.75103 477.97266 516.87766 477.97266 519.83008 C 477.97266 523.65101 476.84372 527.12376 474.58594 530.25 C 470.7651 535.28652 465.0343 538.76141 457.39258 540.67188 C 454.09275 541.71383 452.26922 543.103 451.92188 544.83984 C 451.57453 546.5765 451.40039 547.79163 451.40039 548.48633 C 451.40039 550.91787 452.18303 553.00163 453.74609 554.73828 C 455.30917 556.47512 457.30682 557.34375 459.73828 557.34375 L 462.3418 557.08398 C 473.63069 554.30519 481.88154 549.35517 487.0918 542.23438 C 492.47574 534.94014 495.16797 527.47194 495.16797 519.83008 C 495.16797 516.5304 494.73362 513.05746 493.86523 509.41016 C 490.73907 497.77391 484.22565 489.08864 474.32617 483.35742 C 464.60036 477.62602 454.00554 474.67363 442.54297 474.5 L 442.54297 469.55078 L 512.62109 469.55078 L 614.74414 469.55078 L 606.92578 474.76172 C 582.26418 491.26113 557.86147 508.28137 533.7207 525.82227 C 529.72617 528.2539 527.73242 531.20434 527.73242 534.67773 C 527.73242 538.49867 529.0316 541.19265 531.63672 542.75586 C 533.3735 543.79791 534.85266 544.31836 536.06836 544.31836 C 537.63146 544.31836 539.19279 543.70814 540.75586 542.49219 C 541.1032 542.14493 541.53952 541.88652 542.06055 541.71289 C 542.58157 541.36563 543.10395 541.10332 543.625 540.92969 C 544.146 540.58243 544.92472 540.4082 545.9668 540.4082 C 551.35072 540.4082 560.98866 543.88468 574.88281 550.83203 L 587.39062 556.82227 C 603.88975 564.63776 616.65438 576.18558 625.68555 591.46875 L 625.68555 602.41406 C 625.68555 608.14546 628.72603 611.00781 634.80469 611.00781 C 640.36246 611.00781 643.14062 608.14546 643.14062 602.41406 L 643.14062 469.55078 L 664.76172 469.55078 C 670.49284 469.55078 673.35742 466.60006 673.35742 460.69531 C 673.35742 454.79028 670.49284 451.83789 664.76172 451.83789 L 642.87695 451.83789 C 640.61923 448.36421 637.7566 446.625 634.2832 446.625 C 630.98343 446.625 628.37531 448.36421 626.46484 451.83789 L 512.67773 451.83789 C 512.65832 451.83782 512.64058 451.83594 512.62109 451.83594 L 442.54297 451.83594 C 442.54297 445.75728 441.41403 442.28434 439.15625 441.41602 C 437.07216 440.37388 435.24863 439.85156 433.68555 439.85156 C 427.95426 439.85156 425.08984 442.71782 425.08984 448.44922 L 425.08984 451.83594 L 324.79297 451.83594 L 303.69141 451.83594 C 301.43363 447.14668 299.08769 442.63088 296.65625 438.28906 C 293.53009 432.73148 291.79461 429.43277 291.44727 428.39062 C 291.09992 427.17504 290.66556 426.22009 290.14453 425.52539 C 291.70761 421.87809 292.48828 419.44624 292.48828 418.23047 C 302.56144 400.34194 316.88941 391.39648 335.47266 391.39648 L 340.42383 391.6582 C 361.95955 393.39486 381.40981 398.08293 398.77734 405.72461 C 400.16674 406.41931 401.46982 406.76758 402.68555 406.76758 C 404.59598 406.76758 406.24537 405.89876 407.63477 404.16211 C 409.02416 402.42527 409.71875 400.34151 409.71875 397.91016 C 409.71875 393.56815 407.72304 390.35558 403.72852 388.27148 C 380.62972 378.02464 359.00572 372.90039 338.85938 372.90039 C 324.09699 372.90039 310.46361 376.80755 297.95898 384.62305 C 286.14908 392.95943 277.98626 403.90251 273.4707 417.44922 C 272.42866 420.40164 271.9082 423.0919 271.9082 425.52344 C 271.9082 428.47586 273.12324 432.4713 275.55469 437.50781 C 277.98615 442.3707 280.41817 447.14668 282.84961 451.83594 L 270.86523 451.83594 L 248.72266 451.83594 C 246.81223 448.36245 244.11998 446.625 240.64648 446.625 C 237.17297 446.625 234.39464 448.36245 232.31055 451.83594 L 120.0293 451.83594 L 116.64258 451.83594 L 98.927734 451.83594 C 96.669956 447.14668 94.325994 442.63088 91.894531 438.28906 C 88.768389 432.73148 87.030943 429.43277 86.683594 428.39062 C 86.336245 427.17504 85.901892 426.22009 85.380859 425.52539 C 86.94394 421.87809 87.726562 419.44624 87.726562 418.23047 C 97.799724 400.34194 112.1277 391.39648 130.71094 391.39648 L 135.66016 391.6582 C 157.19587 393.39486 176.6481 398.08293 194.01562 405.72461 C 195.40502 406.41931 196.70614 406.76758 197.92188 406.76758 C 199.8323 406.76758 201.48365 405.89876 202.87305 404.16211 C 204.26244 402.42527 204.95703 400.34151 204.95703 397.91016 C 204.95703 393.56815 202.95937 390.35558 198.96484 388.27148 C 175.86605 378.02464 154.244 372.90039 134.09766 372.90039 z M 791.10938 445.0625 C 785.37797 445.0625 782.51367 447.7549 782.51367 453.13867 L 782.51367 478.66797 C 773.13534 464.60038 759.67408 455.74301 742.13281 452.0957 C 738.31188 451.57482 734.57876 451.31445 730.93164 451.31445 C 719.81647 451.31445 709.48183 454.1809 699.92969 459.91211 C 686.90405 467.38016 678.82936 479.01588 675.70312 494.82031 C 675.18205 498.2938 674.92188 501.59447 674.92188 504.7207 C 674.92188 516.87783 678.48077 527.9051 685.60156 537.80469 C 693.41687 548.91986 704.53223 554.47852 718.94727 554.47852 C 730.40988 554.47852 739.70166 550.39713 746.82227 542.23438 C 752.38004 535.63484 755.16016 527.73223 755.16016 518.52734 C 754.46546 512.79613 751.51111 509.92969 746.30078 509.92969 C 740.56957 509.92969 737.70508 512.79613 737.70508 518.52734 C 737.70508 527.55842 733.36351 533.54935 724.67969 536.50195 C 722.24815 536.84921 719.99034 537.02344 717.90625 537.02344 C 708.3541 537.02344 701.32013 532.4215 696.80469 523.2168 C 693.85208 517.13814 692.375 511.05912 692.375 504.98047 C 692.375 499.94395 693.41767 494.82166 695.50195 489.61133 C 702.44893 475.54355 714.17275 468.50781 730.67188 468.50781 C 735.88202 468.50781 741.17854 469.46453 746.5625 471.375 C 763.40907 477.97473 775.39306 493.69184 782.51367 518.52734 L 782.51367 599.02539 C 782.51367 604.75679 785.46607 607.62305 791.37109 607.62305 C 797.27612 607.62305 800.22852 604.75679 800.22852 599.02539 L 800.22852 469.55078 L 817.68164 469.55078 C 823.23941 469.55078 826.01953 466.68434 826.01953 460.95312 C 826.01953 454.87447 823.23941 451.83594 817.68164 451.83594 L 799.70703 451.83594 C 799.01233 447.32049 796.14589 445.0625 791.10938 445.0625 z M 231.78906 483.09766 L 231.78906 560.73047 C 220.32651 550.31 207.56183 542.14722 193.49414 536.24219 L 188.80469 533.89844 C 182.03135 530.59857 174.47704 527.47195 166.14062 524.51953 C 180.03464 515.31483 201.91693 501.50725 231.78906 483.09766 z M 625.42188 483.88086 L 625.42188 562.03125 C 613.95964 551.43715 601.11055 543.10405 586.86914 537.02539 L 581.91797 534.94141 C 576.18657 531.98889 569.76328 529.21073 562.64258 526.60547 C 583.48352 512.19043 604.4073 497.94864 625.42188 483.88086 z M 425.08984 491.17383 L 425.08984 557.34375 C 409.63276 541.19188 391.13535 529.99056 369.59961 523.73828 L 425.08984 491.17383 z "
         transform="matrix(0.35708553,0,0,-0.35708553,800.73968,1314.7026)" />
      <circle
         style="fill:#0071bc;fill-opacity:1;stroke:none;stroke-width:8.10001;stroke-linecap:round;paint-order:stroke fill markers"
         id="path5692"
         cx="1003.4036"
         cy="-1102.2064"
         r="10.515612"
         transform="scale(1,-1)" />
      <path
         id="circle5774"
         style="fill:none;stroke:#616161;stroke-width:4.5;stroke-linecap:round;stroke-miterlimit:4;stroke-dasharray:none;stroke-opacity:1;paint-order:stroke fill markers"
         d="m 1032.0457,1084.2289 c -7.5646,-13.8985 -24.5134,-20.6146 -40.2101,-15.1353 -13.97882,4.8797 -22.71593,17.9483 -22.53412,31.7593"
         sodipodi:nodetypes="csc" />
      <path
         id="circle5812"
         style="fill:none;stroke:#616161;stroke-width:4.5;stroke-linecap:round;stroke-miterlimit:4;stroke-dasharray:none;stroke-opacity:1;paint-order:stroke fill markers"
         d="m 1066.2091,1095.368 c -3.4094,-31.6832 -30.2365,-56.3527 -62.8254,-56.3527 -34.89954,0 -63.19117,28.2916 -63.19117,63.1911"
         sodipodi:nodetypes="csc" />
      <path
         id="path13128"
         style="fill:none;stroke:#616161;stroke-width:4.5;stroke-linecap:round;stroke-miterlimit:4;stroke-dasharray:none;stroke-opacity:1;paint-order:stroke fill markers"
         d="m 969.28521,1169.1852 c 11.01795,6.0261 23.66134,9.4518 37.10479,9.4518 14.8854,0 28.7898,-4.1999 40.5928,-11.4794"
         sodipodi:nodetypes="csc" />
      <path
         id="circle13254"
         style="fill:none;stroke:#616161;stroke-width:4.5;stroke-linecap:round;stroke-miterlimit:4;stroke-dasharray:none;stroke-opacity:1;paint-order:stroke fill markers"
         d="m 948.05563,1189.6435 c 16.72969,11.0566 36.78036,17.4937 58.33447,17.4937 32.619,0 61.7947,-14.7424 81.2277,-37.9277"
         sodipodi:nodetypes="csc" />
      <circle
         style="opacity:1;fill:#0071bc;fill-opacity:1;stroke:none;stroke-width:5.25;stroke-linecap:round;stroke-miterlimit:4;stroke-dasharray:none;paint-order:stroke fill markers"
         id="path15500"
         cx="979.33197"
         cy="-1075.7705"
         r="6.75"
         transform="scale(1,-1)" />
      <circle
         style="opacity:1;fill:#0071bc;fill-opacity:1;stroke:none;stroke-width:5.25;stroke-linecap:round;stroke-miterlimit:4;stroke-dasharray:none;paint-order:stroke fill markers"
         id="circle15626"
         cx="1026.3728"
         cy="-1077.0359"
         r="6.75"
         transform="scale(1,-1)" />
      <circle
         style="opacity:1;fill:#0071bc;fill-opacity:1;stroke:none;stroke-width:5.25;stroke-linecap:round;stroke-miterlimit:4;stroke-dasharray:none;paint-order:stroke fill markers"
         id="circle15630"
         cx="968.33154"
         cy="-1199.8662"
         r="6.75"
         transform="scale(1,-1)" />
      <circle
         style="opacity:1;fill:#0071bc;fill-opacity:1;stroke:none;stroke-width:5.25;stroke-linecap:round;stroke-miterlimit:4;stroke-dasharray:none;paint-order:stroke fill markers"
         id="circle15632"
         cx="1015.5953"
         cy="-1177.8708"
         r="6.75"
         transform="scale(1,-1)" />
      <path
         style="fill:none;stroke:#ed372e;stroke-width:4.5;stroke-linecap:round;stroke-linejoin:miter;stroke-miterlimit:4;stroke-dasharray:none;stroke-opacity:1;marker-end:url(#TriangleOutM)"
         d="m 1016.7174,1181.7847 c 3.8574,-2.4356 5.4081,4.636 3.8354,18.3062 -0.7494,5.9275 20.7023,-6.8788 23.4477,-5.1879 2.7454,1.6909 -8.8165,21.5955 -7.2534,23.3771 1.563,1.7816 19.8669,-8.8649 21.5803,-7.4514 1.7133,1.4136 -9.548,20.5819 -7.4301,22.2319 2.1179,1.6499 20.9778,-11.0599 23.9011,-10.1551 2.9231,0.9047 -10.2882,19.0638 -7.3651,19.9685 2.9233,0.9047 10.2748,-4.83 14.7522,-2.6482 4.4776,2.1818 11.106,11.7538 15.6909,16.2667"
         id="path15208"
         sodipodi:nodetypes="ccsscssssc" />
      <path
         id="path27486"
         style="fill:none;stroke:#616161;stroke-width:4.49999;stroke-linecap:round;stroke-miterlimit:4;stroke-dasharray:none;stroke-opacity:1;paint-order:stroke fill markers"
         d="m 1086.425,1076.0059 c -9.8269,-38.4735 -44.4229,-66.8965 -85.5933,-66.8965 -43.69964,0 -79.99233,32.0224 -87.11993,74.0965"
         sodipodi:nodetypes="csc" />
      <circle
         style="opacity:1;fill:#0071bc;fill-opacity:1;stroke:none;stroke-width:5.25;stroke-linecap:round;stroke-miterlimit:4;stroke-dasharray:none;paint-order:stroke fill markers"
         id="circle27941"
         cx="1003.707"
         cy="-1039.0205"
         r="6.75"
         transform="scale(1,-1)" />
      <path
         style="fill:none;stroke:#ed372e;stroke-width:4.5;stroke-linecap:round;stroke-linejoin:miter;stroke-miterlimit:4;stroke-dasharray:none;stroke-opacity:1;marker-end:url(#TriangleOutM)"
         d="m 1026.6492,1076.0183 c -0.7494,-4.5 6.3703,-3.1875 18.3613,3.5625 5.1733,2.989 1.6863,-21.75 4.3093,-23.625 2.6231,-1.875 16.4877,16.5 18.736,15.75 2.2483,-0.75 -0.4684,-21.75 1.4989,-22.7813 1.9673,-1.0312 15.2698,16.7813 17.6118,15.4688 2.342,-1.3125 -2.0609,-23.625 -0.094,-25.9688 1.9673,-2.3437 13.5836,16.875 15.5509,14.5313 1.9673,-2.3438 -0.4684,-11.3438 3.2788,-14.625 3.7472,-3.2813 15.1404,-5.6799 21.078,-8.1563"
         id="path14317"
         sodipodi:nodetypes="ccsscssssc" />
      <circle
         style="opacity:1;fill:#0071bc;fill-opacity:1;stroke:none;stroke-width:5.25;stroke-linecap:round;stroke-miterlimit:4;stroke-dasharray:none;paint-order:stroke fill markers"
         id="circle15628"
         cx="1051.6708"
         cy="-1025.5962"
         r="6.75"
         transform="scale(1,-1)" />
      <circle
         style="opacity:1;fill:#0071bc;fill-opacity:1;stroke:none;stroke-width:5.25;stroke-linecap:round;stroke-miterlimit:4;stroke-dasharray:none;paint-order:stroke fill markers"
         id="circle28025"
         cx="963.17072"
         cy="-1018.0962"
         r="6.75"
         transform="scale(1,-1)" />
    </g>
  </g>
</svg>
